<?xml version="1.0" encoding="utf-8"?>
<!-- Generator: Adobe Illustrator 19.1.0, SVG Export Plug-In . SVG Version: 6.00 Build 0)  -->
<svg version="1.1" id="Layer_1" xmlns="http://www.w3.org/2000/svg" xmlns:xlink="http://www.w3.org/1999/xlink" x="0px" y="0px"
	 viewBox="-531.2 313.9 128.6 127.8" style="enable-background:new -531.2 313.9 128.6 127.8;" xml:space="preserve">
<circle cx="-484" cy="378.4" r="5.6"/>
<path d="M-448.7,384c3.1,0,5.6-2.5,5.6-5.6c0-3.1-2.5-5.6-5.6-5.6c-3.1,0-5.6,2.5-5.6,5.6C-454.4,381.5-451.9,384-448.7,384z"/>
<path d="M-403.2,362.7c-0.3-0.4-7.2-10-16.2-10c-1.8,0-3.5,0.2-5,0.5c5.5-5.1,9.5-14.2,9.5-28.7c0-1.3-0.9-2.5-2.1-2.9
	c-1.2-0.4-2.6,0.1-3.4,1.1c-11,15.8-24.6,15.8-25.8,15.8c-5.7-4-12.7-6.3-20.2-6.3c-7.5,0-14.4,2.3-20.2,6.3
	c-1.2,0-14.8,0-25.8-15.8c-0.8-1.1-2.1-1.5-3.4-1.1c-1.2,0.4-2.1,1.6-2.1,2.9c0,14.9,4.2,24.1,10,29.1c-2-0.6-4.2-0.9-6.6-0.9
	c-9.1,0-15.9,9.6-16.2,10c-0.7,1-0.7,2.4,0,3.5c0.3,0.4,7.2,10,16.2,10c5,0,9.4-1.4,12.4-3.8v28.3c0,19.7,16,35.7,35.7,35.7
	c19.7,0,35.7-16,35.7-35.7v-27.6c3,1.9,6.9,3,11.3,3c9.1,0,15.9-9.6,16.2-10C-402.5,365.2-402.5,363.8-403.2,362.7z M-421.6,333.5
	c-1.6,10.3-6.1,16.9-12.9,18.6c-1.5-3-3.4-5.8-5.7-8.2C-435.3,342.9-428.4,340.2-421.6,333.5z M-436.7,368.1v30.7h-59.3v-30.7
	c0-16.4,13.3-29.7,29.7-29.7S-436.7,351.7-436.7,368.1z M-511.2,333.5c6.8,6.6,13.7,9.3,18.6,10.4c-2.3,2.4-4.2,5.2-5.7,8.2
	C-505,350.4-509.6,343.9-511.2,333.5z M-500.5,357.8C-500.5,357.8-500.5,357.8-500.5,357.8c-0.1,0-0.1,0-0.2-0.1
	C-500.7,357.7-500.6,357.7-500.5,357.8z M-514.5,370.2c-3.9,0-7.7-3.3-9.9-5.7c2.2-2.4,6-5.7,9.9-5.7c6.2,0,10.8,3,10.8,5.7
	S-508.3,370.2-514.5,370.2z M-466.4,430.4c-15,0-27.4-11.2-29.4-25.6h58.8C-439,419.3-451.4,430.4-466.4,430.4z M-419.5,370.2
	c-6.2,0-10.8-3-10.8-5.7s4.6-5.7,10.8-5.7c3.8,0,7.7,3.3,9.9,5.7C-411.6,366.7-415.4,370.2-419.5,370.2z"/>
<rect x="-479.1" y="410.2" width="6" height="8.8"/>
<rect x="-460.8" y="410.2" width="6" height="8.8"/>
</svg>
