<?xml version="1.0" encoding="utf-8"?>
<!-- Generator: Adobe Illustrator 19.1.0, SVG Export Plug-In . SVG Version: 6.00 Build 0)  -->
<svg version="1.1" id="Layer_1" xmlns="http://www.w3.org/2000/svg" xmlns:xlink="http://www.w3.org/1999/xlink" x="0px" y="0px"
	 viewBox="-570.1 369.2 39 39" style="enable-background:new -570.1 369.2 39 39;" xml:space="preserve">
<style type="text/css">
	.st0{fill:none;}
</style>
<g>
	<path class="st0" d="M-544.2,380.6v-3.1h-4.2c-2.2,0-4,1.9-4,4.2v4h-4.1v2.9h4.1v11.6h3.5v-11.6h4.7v-2.9h-4.7v-3.4
		c0-0.9,0.7-1.7,1.5-1.7H-544.2z"/>
	<path d="M-538.6,369.2h-24c-4.1,0-7.5,3.4-7.5,7.5v24c0,4.1,3.4,7.5,7.5,7.5h24c4.1,0,7.5-3.4,7.5-7.5v-24
		C-531.1,372.6-534.4,369.2-538.6,369.2z M-548.9,382.3v3.4h4.7v2.9h-4.7v11.6h-3.5v-11.6h-4.1v-2.9h4.1v-4c0-2.3,1.8-4.2,4-4.2h4.2
		v3.1h-3.2C-548.2,380.6-548.9,381.4-548.9,382.3z"/>
</g>
</svg>
