<?xml version="1.0" encoding="utf-8"?>
<!-- Generator: Adobe Illustrator 21.0.0, SVG Export Plug-In . SVG Version: 6.00 Build 0)  -->
<svg version="1.1" id="Layer_1" xmlns="http://www.w3.org/2000/svg" xmlns:xlink="http://www.w3.org/1999/xlink" x="0px" y="0px"
	 viewBox="0 0 120 120" style="enable-background:new 0 0 120 120;" xml:space="preserve">
<path d="M113.2,115.5c-1.3,0-2.3-1-2.3-2.3c0-9.8-7-20.8-17-20.8H83.1c-1.3,0-2.3-1-2.3-2.3s1-2.3,2.3-2.3h10.8
	c12.9,0,21.6,13.2,21.6,25.4C115.5,114.5,114.5,115.5,113.2,115.5z"/>
<path d="M25.3,115.5c-1.3,0-2.3-1-2.3-2.3c0-12.6,12.6-25.4,25-25.4h7.4c1.3,0,2.3,1,2.3,2.3s-1,2.3-2.3,2.3H48
	c-9.9,0-20.4,10.7-20.4,20.8C27.6,114.5,26.6,115.5,25.3,115.5z"/>
<path d="M101.6,41.5H36.9c-1.3,0-2.3-1-2.3-2.3s1-2.3,2.3-2.3h64.8c1.3,0,2.3,1,2.3,2.3S102.9,41.5,101.6,41.5z"/>
<path d="M43.8,115.5c-1.3,0-2.3-1-2.3-2.3V92.4c0-1.3,1-2.3,2.3-2.3s2.3,1,2.3,2.3v20.8C46.1,114.5,45.1,115.5,43.8,115.5z"/>
<path d="M53.1,115.5c-1.3,0-2.3-1-2.3-2.3V92.4c0-1.3,1-2.3,2.3-2.3s2.3,1,2.3,2.3v20.8C55.4,114.5,54.3,115.5,53.1,115.5z"/>
<path d="M94.7,115.5c-1.3,0-2.3-1-2.3-2.3V92.4c0-1.3,1-2.3,2.3-2.3s2.3,1,2.3,2.3v20.8C97,114.5,96,115.5,94.7,115.5z"/>
<path d="M85.4,115.5c-1.3,0-2.3-1-2.3-2.3V92.4c0-1.3,1-2.3,2.3-2.3s2.3,1,2.3,2.3v20.8C87.8,114.5,86.7,115.5,85.4,115.5z"/>
<path d="M90.1,39.9c-1.3,0-2.3-1-2.3-2.3V25.8c0-9.5-9.8-16.6-18.5-16.6c-9.7,0-18.5,8.1-18.5,17v11.5c0,1.3-1,2.3-2.3,2.3
	s-2.3-1-2.3-2.3V26.2c0-11.3,11-21.7,23.1-21.7c12.3,0,23.1,9.9,23.1,21.3v11.9C92.4,38.9,91.3,39.9,90.1,39.9z"/>
<path d="M69.2,97c-12.8,0-23.1-10.4-23.1-23.1v-5c-2.7-1-4.6-3.5-4.6-6.5v-9.2c0-3,1.9-5.6,4.6-6.5v-5c0-1.3,1-2.3,2.3-2.3
	s2.3,1,2.3,2.3v6.9c0,1.3-1,2.3-2.3,2.3s-2.3,1-2.3,2.3v9.2c0,1.3,1,2.3,2.3,2.3s2.3,1,2.3,2.3v6.9c0,10.2,8.3,18.5,18.5,18.5
	s18.5-8.3,18.5-18.5v-6.9c0-1.3,1-2.3,2.3-2.3s2.3-1,2.3-2.3v-9.2c0-1.3-1-2.3-2.3-2.3s-2.3-1-2.3-2.3v-6.9c0-1.3,1-2.3,2.3-2.3
	s2.3,1,2.3,2.3v5c2.7,1,4.6,3.5,4.6,6.5v9.2c0,3-1.9,5.6-4.6,6.5v5C92.4,86.6,82,97,69.2,97z"/>
<path d="M16.1,79.7c-6.4,0-11.6-5.2-11.6-11.5V55.4c0-1.3,1-2.3,2.3-2.3s2.3,1,2.3,2.3v12.8c0,3.8,3.1,6.9,6.9,6.9s6.9-3.1,6.9-7
	V55.4c0-1.3,1-2.3,2.3-2.3s2.3,1,2.3,2.3v12.7C27.6,74.5,22.4,79.7,16.1,79.7z"/>
<path d="M16.1,115.5c-1.3,0-2.3-1-2.3-2.3V55.4c0-1.3,1-2.3,2.3-2.3s2.3,1,2.3,2.3v57.8C18.4,114.5,17.3,115.5,16.1,115.5z"/>
</svg>
