<?xml version="1.0" encoding="utf-8"?>
<!-- Generator: Adobe Illustrator 19.1.0, SVG Export Plug-In . SVG Version: 6.00 Build 0)  -->
<svg version="1.1" id="Layer_1" xmlns="http://www.w3.org/2000/svg" xmlns:xlink="http://www.w3.org/1999/xlink" x="0px" y="0px"
	 viewBox="-597 378.5 29 28.7" style="enable-background:new -597 378.5 29 28.7;" xml:space="preserve">
<g transform="translate(-210 -620)">
	<g>
		<polygon points="-378,1008.5 -378,1005.5 -377,1005.5 -377,1000.5 -378,1000.5 -378,1004.5 -379,1004.5 -379,1000.5 -380,1000.5 
			-380,1005.5 -379,1005.5 -379,1026.5 -378,1026.5 -378,1009.5 -373,1009.5 -373,1026.5 -371,1026.5 -371,1016.5 -370,1016.5 
			-370,1026.5 -368,1026.5 -368,1009.5 -367,1009.5 -367,1015.5 -366,1015.5 -366,1008.5 		"/>
		<path d="M-366,1003.5c0-1.1-0.8-2-2.1-2.5c-0.3-0.8-1.2-1.5-2.4-1.5s-2.1,0.6-2.4,1.5c-1.3,0.5-2.1,1.5-2.1,2.5
			c0,0.9,0.6,1.7,1.5,2.2c0-0.1,0-0.2,0-0.2c0-1.7,1.3-3,3-3s3,1.3,3,3c0,0.1,0,0.2,0,0.2C-366.6,1005.2-366,1004.4-366,1003.5z"/>
		<circle cx="-370.5" cy="1005.5" r="2"/>
		<rect x="-387" y="1017.5" width="7" height="1"/>
		<rect x="-377" y="1017.5" width="3" height="1"/>
		<rect x="-367" y="1017.5" width="9" height="1"/>
		<circle cx="-361.5" cy="1002" r="2.5"/>
		<rect x="-385" y="1020.5" width="5" height="1"/>
		<rect x="-387" y="1023.5" width="7" height="1"/>
		<rect x="-377" y="1020.5" width="3" height="1"/>
		<rect x="-377" y="1023.5" width="3" height="1"/>
		<rect x="-367" y="1020.5" width="7" height="1"/>
		<rect x="-367" y="1023.5" width="6" height="1"/>
		<rect x="-360" y="1023.5" width="2" height="1"/>
	</g>
</g>
</svg>
