<?xml version="1.0" encoding="utf-8"?>
<!-- Generator: Adobe Illustrator 21.0.0, SVG Export Plug-In . SVG Version: 6.00 Build 0)  -->
<svg version="1.1" id="Layer_1" xmlns="http://www.w3.org/2000/svg" xmlns:xlink="http://www.w3.org/1999/xlink" x="0px" y="0px"
	 viewBox="0 0 828.2 194.2" style="enable-background:new 0 0 828.2 194.2;" xml:space="preserve">
<style type="text/css">
	.st0{clip-path:url(#SVGID_3_);}
	.st1{clip-path:url(#SVGID_4_);}
	.st2{fill:#FFFFFF;}
	.st3{fill:#00902F;}
	.st4{fill:#0D5204;}
	.st5{fill:#199E08;}
	.st6{fill:#137806;}
	.st7{fill:#20C70A;}
</style>
<title>logo</title>
<g>
	<defs>
		<polygon id="SVGID_1_" points="828.8,-0.5 -0.2,-0.5 -0.2,195.9 828.8,195.9 828.8,-0.5 		"/>
	</defs>
	<defs>
		<rect id="SVGID_2_" x="-0.2" y="-596.1" width="829" height="792"/>
	</defs>
	<clipPath id="SVGID_3_">
		<use xlink:href="#SVGID_1_"  style="overflow:visible;"/>
	</clipPath>
	<clipPath id="SVGID_4_" class="st0">
		<use xlink:href="#SVGID_2_"  style="overflow:visible;"/>
	</clipPath>
	<g class="st1">
		<path d="M59.8,58.2V44.6H32.3c-0.2-18.5,7.1-25.4,27.5-25.4V5.6c-28.5,0-42.9,13.2-42.5,39H0.1v13.6h17.2v97.5h15V58.2H59.8z"/>
		<path d="M181.9,155.8V44.6h-15v19.7C156,48.9,142.4,42,123.2,42C90,42,64.9,67.2,64.9,100.5c0,33.1,25.3,57.9,59.3,57.9
			c18.8,0,31-6.3,42.7-22.1v19.5L181.9,155.8z M166.9,99.7c0,25.2-18.6,44.9-42.5,44.9c-25.1,0-44.3-19.7-44.3-45.1
			c-0.1-24,19.4-43.6,43.4-43.7c0,0,0.1,0,0.1,0C147.9,55.8,166.9,74.9,166.9,99.7z"/>
		<path d="M222.4,155.8V44.6h-15v111.1H222.4z M222.4,32.4V6.8h-15v25.6L222.4,32.4z"/>
		<path d="M262.9,155.8V44.6h-15v111.1H262.9z M262.9,32.4V6.8h-15v25.6L262.9,32.4z"/>
		<polygon class="st2" points="266.1,1.1 243.5,1.1 243.5,35.7 266.1,35.7 266.1,1.1 		"/>
		<path d="M365,21.2c0.2-11.5-9-21.1-20.5-21.3c-0.3,0-0.5,0-0.8,0C331.1,0,322,8.7,322,23.7h11.6c0-7.8,4.1-12.9,10.2-12.9
			c5.4,0,9.5,4.4,9.5,10.3c0,4.2-2.2,8.1-7.5,13.1l-23.3,22v10.4h42.4V55.5H339l13.4-12.1C362.3,34.4,365,29.3,365,21.2L365,21.2z"
			/>
		<path class="st3" d="M263.2,59.6c-0.4-7.3,3-16.5,8.8-20.8c13.8-10.5,40.3-7.6,51.8,6.8c-15,4-19,12-33,28.3
			c-11,12.8-24.8,7.9-27.5,5.7c8.3-12.5,11.5-22.6,31.9-24.1V42.7C280.6,42.5,269.6,48,263.2,59.6L263.2,59.6z"/>
		
			<image style="overflow:visible;enable-background:new    ;" width="1145" height="634" xlink:href="E19647272AB1FFBC.png"  transform="matrix(0.2398 0 0 0.2392 0 6.84)">
		</image>
		<polygon class="st4" points="75,179.7 16.8,179.7 16.8,194.2 75,194.2 75,179.7 		"/>
		<polygon class="st5" points="200.5,179.7 142.2,179.7 142.2,194.2 200.5,194.2 200.5,179.7 		"/>
		<polygon class="st6" points="137.7,179.7 79.5,179.7 79.5,194.2 137.7,194.2 137.7,179.7 		"/>
		<polygon class="st7" points="263.2,179.7 205,179.7 205,194.2 263.2,194.2 263.2,179.7 		"/>
		<path d="M432.8,52.4v-4h-8.1c-0.1-5.4,2.1-7.5,8.1-7.5v-4c-8.4,0-12.6,3.9-12.5,11.5h-5.1v4h5.1v28.6h4.4V52.4H432.8z"/>
		<path d="M471.4,81.1V48.4H467v5.8c-3.2-4.5-7.2-6.6-12.9-6.6c-9.3-0.2-17,7.2-17.2,16.4c0,0.2,0,0.5,0,0.7c0,9.7,7.5,17,17.5,17
			c5.5,0,9.1-1.8,12.6-6.5v5.7L471.4,81.1z M467,64.6c0,7.4-5.5,13.2-12.5,13.2c-7.2,0-13-5.8-13.1-12.9c0-0.1,0-0.2,0-0.3
			c0-7.1,5.7-12.8,12.8-12.8c0,0,0,0,0,0c7-0.1,12.7,5.6,12.8,12.5C467,64.3,467,64.4,467,64.6L467,64.6z"/>
		<path d="M484.8,81.1V48.4h-4.4v32.6H484.8z M484.8,44.9v-7.5h-4.4v7.5L484.8,44.9z"/>
		<path d="M507.4,52v-4.3c-4.7,0.2-7.5,1.8-9.2,5.4v-4.7h-4.4v32.6h4.4v-19C498.1,56,501.2,52.6,507.4,52L507.4,52z"/>
		<path d="M546.3,52.4v-4h-8.1c-0.1-5.4,2.1-7.5,8.1-7.5v-4c-8.4,0-12.6,3.9-12.5,11.5h-5.1v4h5.1v28.6h4.4V52.4H546.3z"/>
		<path d="M584.5,64.8c0-10-7.2-17.2-16.9-17.2c-9.2-0.2-16.9,7.1-17.1,16.3c0,0.2,0,0.3,0,0.5c0,10,7.3,17.3,17.5,17.3
			C577.4,81.8,584.5,74.6,584.5,64.8L584.5,64.8z M580,64.9c0,7.4-5.1,12.9-12.2,12.9c-7.5,0-12.9-5.5-12.9-13.1
			c0-7.4,5.4-12.9,12.6-12.9S580,57.3,580,64.9L580,64.9z"/>
		<path d="M625,64.8c0-10-7.2-17.2-16.9-17.2c-9.2-0.2-16.9,7.1-17.1,16.3c0,0.2,0,0.3,0,0.5c0,10,7.3,17.3,17.5,17.3
			C617.9,81.8,625,74.6,625,64.8L625,64.8z M620.5,64.9c0,7.4-5.1,12.9-12.2,12.9c-7.5,0-12.9-5.5-12.9-13.1
			c0-7.4,5.4-12.9,12.6-12.9S620.5,57.3,620.5,64.9L620.5,64.9z"/>
		<path d="M666,81.1V37h-4.4v16.6c-3.1-3.9-7.9-6.1-12.8-6c-9.8,0-17.3,7.4-17.3,17.1s7.7,17,17.8,17c5.4,0,9.1-2,12.4-6.7V81
			L666,81.1z M661.8,64.7c0,7.1-5.8,12.9-13,12.9c-7.1,0-12.9-5.8-12.9-13c-0.1-7,5.6-12.8,12.6-12.9c0,0,0.1,0,0.1,0
			C655.8,51.6,661.7,57.4,661.8,64.7C661.8,64.6,661.8,64.6,661.8,64.7z"/>
		<path d="M709.2,52.4v-4H701c-0.1-5.4,2.1-7.5,8.1-7.5v-4c-8.4,0-12.6,3.9-12.5,11.5h-5.1v4h5.1v28.6h4.4V52.4H709.2z"/>
		<path d="M746.3,64.8c0-10-7.2-17.2-16.9-17.2c-9.2-0.2-16.9,7.1-17.1,16.3c0,0.2,0,0.3,0,0.5c0,10,7.3,17.3,17.5,17.3
			C739.3,81.8,746.3,74.6,746.3,64.8L746.3,64.8z M741.8,64.9c0,7.4-5.1,12.9-12.2,12.9c-7.5,0-12.9-5.5-12.9-13.1
			c0-7.4,5.4-12.9,12.6-12.9S741.8,57.3,741.8,64.9L741.8,64.9z"/>
		<path d="M766.7,52v-4.3c-4.7,0.2-7.5,1.8-9.2,5.4v-4.7H753v32.6h4.4v-19C757.4,56,760.5,52.6,766.7,52L766.7,52z"/>
		<path d="M825,81.1V48.4h-4.4v5.8c-3.2-4.5-7.2-6.6-12.9-6.6c-9.3-0.2-17,7.2-17.2,16.4c0,0.2,0,0.5,0,0.7c0,9.7,7.5,17,17.5,17
			c5.5,0,9.1-1.8,12.6-6.5v5.7L825,81.1z M820.6,64.6c0,7.4-5.5,13.2-12.5,13.2c-7.2,0-13-5.7-13.1-12.9c0-0.1,0-0.2,0-0.3
			c0-7.1,5.7-12.8,12.8-12.8c0,0,0,0,0,0c7-0.1,12.7,5.6,12.8,12.5C820.6,64.3,820.6,64.4,820.6,64.6L820.6,64.6z"/>
		<path d="M432.8,112.1v-4h-8.1c-0.1-5.4,2.1-7.4,8.1-7.4v-4c-8.4,0-12.6,3.9-12.5,11.4h-5.1v4h5.1v28.6h4.4v-28.6H432.8z"/>
		<path d="M471.4,140.7v-32.6H467v5.8c-3.2-4.5-7.2-6.6-12.9-6.6c-9.3-0.2-17,7.1-17.2,16.4c0,0.3,0,0.5,0,0.8c0,9.7,7.5,17,17.5,17
			c5.5,0,9.1-1.9,12.6-6.5v5.7L471.4,140.7z M467,124.2c0,7.4-5.5,13.2-12.5,13.2c-7.2,0-13-5.8-13.1-12.9c0-0.1,0-0.2,0-0.3
			c0-7.1,5.7-12.8,12.8-12.8c0,0,0,0,0,0c7-0.1,12.7,5.6,12.8,12.5C467,124,467,124.1,467,124.2L467,124.2z"/>
		<path d="M484.8,140.7v-32.6h-4.4v32.6L484.8,140.7z M484.8,104.5V97h-4.4v7.5L484.8,104.5z"/>
		<path d="M507.4,111.6v-4.3c-4.7,0.2-7.5,1.8-9.2,5.4v-4.7h-4.4v32.6h4.4v-19C498.1,115.6,501.2,112.3,507.4,111.6L507.4,111.6z"/>
		<path d="M569.9,125.8c0-11.6-7.3-18.6-17-18.6c-9.3-0.1-16.8,7.3-16.9,16.6c0,0.1,0,0.2,0,0.3c-0.1,9.4,7.4,17.2,16.8,17.3
			c0.1,0,0.3,0,0.4,0c7.2-0.2,13.5-4.8,15.9-11.5h-4.6c-2,4.5-6.4,7.5-11.4,7.4c-6.6,0.1-12.2-5-12.7-11.6L569.9,125.8z
			 M565.5,121.8h-25c0.9-6.1,6.2-10.5,12.3-10.5C559.1,111.3,564,115.3,565.5,121.8L565.5,121.8z"/>
		<path d="M609.9,131.1h-5c-3.4,4.5-6.6,6.3-11.2,6.3c-7.2,0.1-13.1-5.7-13.1-12.9c0,0,0-0.1,0-0.1c-0.1-7.1,5.5-12.9,12.6-13.1
			c0.1,0,0.2,0,0.3,0c4.7-0.1,9.1,2.5,11.3,6.6h5c-3.8-8.9-14.1-13.1-23-9.3c-6.3,2.7-10.5,8.8-10.7,15.6c0,9.7,7.8,17.2,17.8,17.2
			C600.7,141.5,605.9,138.5,609.9,131.1L609.9,131.1z"/>
		<path d="M650.2,124.5c0-10-7.2-17.2-16.9-17.2c-9.2-0.2-16.9,7.1-17.1,16.3c0,0.2,0,0.4,0,0.5c0,10,7.3,17.3,17.5,17.3
			C643.2,141.5,650.2,134.3,650.2,124.5z M645.8,124.5c0,7.5-5.1,12.9-12.2,12.9c-7.5,0-12.9-5.5-12.9-13.1
			c0-7.4,5.4-12.9,12.6-12.9S645.8,116.9,645.8,124.5z"/>
		<path d="M686.8,140.7v-17.1c0-11.4-5.8-16.3-14-16.3c-4.1-0.1-8,1.8-10.5,5v-4.2h-4.4v32.6h4.4v-17.9c0-8,4-11.4,10-11.4
			s10.1,3.3,10.1,12.2v17.1L686.8,140.7z"/>
		<path d="M728.5,124.5c0-10-7.2-17.2-16.9-17.2c-9.2-0.2-16.9,7.1-17.1,16.3c0,0.2,0,0.4,0,0.5c0,10,7.3,17.3,17.5,17.3
			C721.5,141.5,728.5,134.3,728.5,124.5z M724.1,124.6c0,7.5-5.1,12.9-12.2,12.9c-7.5,0-12.9-5.5-12.9-13.1
			c0-7.4,5.4-12.9,12.6-12.9S724,117,724.1,124.6L724.1,124.6z"/>
		<path d="M784.6,140.7v-19.4c0-9.5-5.4-14.1-12.8-14.1c-5.1,0-8.6,2-11.3,6.3c-2.6-4.3-5.8-6.3-10.7-6.3c-3.6-0.2-7.1,1.5-9.2,4.5
			v-3.8h-4.4v32.6h4.4v-19c0-6.5,3.3-10.3,8.8-10.3c5,0,8.8,3,8.8,10.3v19h4.4v-18.9c0-7.4,3.8-10.5,9-10.5c5.4,0,8.7,3.2,8.7,10.5
			v18.9H784.6z"/>
		<polygon points="821.2,108.1 816.5,108.1 805.5,134.1 795.2,108.1 790.4,108.1 803,139.6 797.7,152.1 802.4,152.1 821.2,108.1 		
			"/>
	</g>
</g>
</svg>
