<?xml version="1.0" encoding="utf-8"?>
<!-- Generator: Adobe Illustrator 19.1.0, SVG Export Plug-In . SVG Version: 6.00 Build 0)  -->
<svg version="1.1" id="Layer_1" xmlns="http://www.w3.org/2000/svg" xmlns:xlink="http://www.w3.org/1999/xlink" x="0px" y="0px"
	 viewBox="-561 334 100 99.5" style="enable-background:new -561 334 100 99.5;" xml:space="preserve">
<title>Artboard 18</title>
<path d="M-555.5,394.5c-2.3,0-4.3-1.7-4.6-4c-1.7-12.5,1.5-25.2,9-35.5c15.8-21.7,45.9-27,68.1-11.9l2.1-2.9
	c0.5-0.7,1.4-0.8,2.1-0.3c0.2,0.2,0.4,0.4,0.5,0.7l5.5,14.3c0.3,0.8-0.1,1.6-0.9,1.9c-0.2,0.1-0.4,0.1-0.6,0.1l-15.3-0.8
	c-0.8,0-1.5-0.7-1.4-1.6c0-0.3,0.1-0.6,0.3-0.8l2.1-2.8c-17.8-12-42-7.7-54.7,9.6c-1.1,1.6-2.1,3.2-3,4.9h12.5
	c0.5,0,0.9,0.4,0.9,0.9c0,0.2,0,0.3-0.1,0.5c-0.9,1.6-1.2,3.6-0.6,5.4c0.6,1.8,2.1,3.2,3.9,3.8c3.2,1.2,6.8,0.9,9.8-0.7l9.4-5.3
	c0.3-0.2,0.6-0.1,0.8,0.1l19.6,24l2.4,2.9c1.4,1.7,1.3,4.2-0.4,5.6c-0.2,0.1-0.3,0.3-0.5,0.4c-1.6,0.9-3.6,0.7-4.9-0.6l-0.3-0.3
	c0,0-0.1,0-0.1,0c0,0,0,0,0,0.1c0.3,1.6-0.4,3.2-1.7,4.1c-1.6,1-3.7,0.8-5.1-0.6l-0.3-0.3c0,0-0.1,0-0.1,0c0,0,0,0,0,0.1
	c0.3,1.6-0.4,3.2-1.7,4.1c-1.6,1-3.7,0.8-5.1-0.6l-0.3-0.3c0,0-0.1,0-0.1,0c0,0,0,0,0,0.1c0.4,2.2-1.1,4.3-3.2,4.6
	c-1,0.2-2.1,0-3-0.6l0.4-0.7c1.7-2.8,1.3-6.4-1-8.7c-1-1-2.4-1.7-3.8-1.9c-0.9-1.5-2.3-2.7-4.1-3.2c-0.7-2.3-2.5-4.2-4.9-4.8
	c-0.4-1.6-1.4-2.9-2.8-3.9c-3.1-1.9-7.2-1.3-9.5,1.5l-2.5,3.1L-555.5,394.5L-555.5,394.5z M-532.9,392.7c-1.5-0.8-3.4-0.5-4.4,0.9
	l-2.6,3.2c-1.2,1.4-1,3.5,0.5,4.7c0,0,0,0,0.1,0l0.4,0.3c1.1,0.8,2.6,0.9,3.7,0.3c0.1,0,0.2,0,0.2,0.1c0,0,0,0.1,0,0.1
	c-0.2,1.2,0.2,2.5,1.2,3.3l0.3,0.3c1,0.8,2.4,0.9,3.6,0.3c0.1,0,0.2,0,0.2,0.1c0,0,0,0.1,0,0.1c-0.1,1.2,0.4,2.3,1.3,3l0.2,0.2
	c1,0.8,2.5,1,3.6,0.3c0.1-0.1,0.2,0,0.3,0.1c0,0,0,0.1,0,0.1c0.1,0.8,0.6,1.6,1.2,2.1l0.1,0.1c1.5,1.2,3.6,0.9,4.8-0.6
	c0.1-0.1,0.2-0.3,0.3-0.4l0.5-0.9c0.9-1.4,0.6-3.2-0.6-4.4c-1-0.9-2.5-1.1-3.7-0.6c-0.1,0-0.1,0-0.1-0.1c0,0,0,0,0,0
	c0.1-1.9-1.3-3.4-3.2-3.5c-0.5,0-1,0-1.4,0.2c-0.5,0.1-0.4-0.4-0.4-0.4c0.7-1.7-0.1-3.7-1.8-4.4c-0.9-0.4-2-0.3-2.9,0.2
	c-0.4,0.1-0.3-0.3-0.3-0.3C-530.9,395.6-531.4,393.6-532.9,392.7z M-463.6,369.8l-0.3-1l0,0c-0.6-1.9-2.4-3.2-4.4-3.2h-11
	c-1.4,0-2.9-0.3-4.2-0.8l-20.7-7.9c-4.2-1.6-8.9-0.9-12.4,1.8l-13,9.9c-1,0.9-1.1,2.5-0.2,3.5c0.2,0.3,0.5,0.5,0.8,0.6
	c2.3,1,5,0.9,7.2-0.4l11.1-6.2c0.8-0.5,1.9-0.3,2.5,0.5l24.1,29.3c0.2,0.3,0.6,0.3,0.9,0.1c0,0,0,0,0,0l1-0.8
	c0.5-0.4,1.1-0.6,1.8-0.6h7.8c-5.8,21.2-27.7,33.7-48.9,27.9c-4.9-1.3-9.5-3.6-13.6-6.7l2.2-2.7c0.5-0.6,0.4-1.6-0.2-2.1
	c-0.2-0.2-0.5-0.3-0.8-0.3l-15.3-1.6c-0.8-0.1-1.6,0.5-1.7,1.3c0,0.2,0,0.5,0.1,0.7l4.7,14.6c0.3,0.8,1.2,1.2,1.9,0.9
	c0.3-0.1,0.5-0.3,0.7-0.5l2.2-2.8c21.7,16.7,52.8,12.7,69.5-9C-462.1,401.6-459,385.1-463.6,369.8z"/>
</svg>
