<?xml version="1.0" encoding="utf-8"?>
<!-- Generator: Adobe Illustrator 21.0.0, SVG Export Plug-In . SVG Version: 6.00 Build 0)  -->
<svg version="1.1" id="Layer_1" xmlns="http://www.w3.org/2000/svg" xmlns:xlink="http://www.w3.org/1999/xlink" x="0px" y="0px"
	 viewBox="0 0 40 40" style="enable-background:new 0 0 40 40;" xml:space="preserve">
<g>
	<path d="M7.5,38.2H4c-1.3,0-2.3-1-2.3-2.3V23.4c0-1.3,1-2.3,2.3-2.3h4.5c0.6,0,1.2,0.3,1.7,0.7c0.4,0.5,0.6,1.1,0.6,1.7l-1,12.6
		C9.7,37.3,8.7,38.2,7.5,38.2z M7.5,36v1.1V36z M8.5,23.4l-4.5,0L4,36l3.5,0L8.5,23.4z M22.3,37.1c-3.7,0-7.8-0.8-10.9-2.1l-2.9-1.2
		c-0.6-0.2-0.8-0.9-0.6-1.5c0.2-0.6,0.9-0.9,1.5-0.6l2.9,1.2c2.8,1.2,6.6,1.9,10,1.9c4.4,0,7.9-1.5,12.4-3.6
		c1.2-0.6,1.3-1.2,1.3-1.4c0-0.2-0.1-0.4-0.2-0.6c-0.2-0.2-1.1-0.2-2.4,0.3c-0.3,0.1-0.6,0.2-0.9,0.3c-3.8,1-9.1,1.2-13.2,0.5
		c-0.6-0.1-1-0.7-0.9-1.3s0.6-1,1.3-1c2.2,0.3,4.1,0.2,5.6-0.1c0.5-0.1,0.8-0.5,0.8-0.9c0-0.4-0.3-0.8-0.8-0.9
		c-2.2-0.3-5-0.7-7.7-1.3c-0.6-0.1-2-0.4-3.2-0.4c-1.5,0-2.5,0.4-4.1,1.1c-0.6,0.2-1.2,0-1.5-0.6c-0.2-0.6,0-1.3,0.6-1.5
		c1.8-0.8,3.1-1.2,5-1.2c1.3,0,2.9,0.2,3.7,0.4c2.6,0.6,5.3,1,7.4,1.3c1.7,0.2,2.9,1.5,2.9,3.1c0,0.4-0.1,0.8-0.2,1.2
		c1.4-0.1,2.7-0.4,3.9-0.7c0.2-0.1,0.4-0.1,0.6-0.2c1.2-0.5,3.5-1,4.8,0.2c0.6,0.6,0.9,1.3,0.9,2.2c0,0.7-0.3,2.3-2.6,3.4
		C31.8,35.1,27.5,37.1,22.3,37.1z M30.6,22.3l-0.2,0c-0.2,0-4.1-0.9-7.1-2.4c-8.8-4.3-5.6-16.8-5.5-17.3C17.9,2,18.4,1.7,19,1.8
		C28.2,3.1,31.6,7,32.7,9.2c2.7,5.1-1,12.2-1.1,12.5C31.4,22.1,31,22.3,30.6,22.3z M19.7,4.2C19.2,7,18.4,15,24.2,17.8
		c2,1,4.4,1.6,5.7,2c0.8-1.8,2.4-6.4,0.8-9.6C29.8,8.5,27.2,5.5,19.7,4.2z M31.8,29.9c-0.6,0-1.1-0.5-1.1-1.1
		c0-9.3-6.6-17.1-6.7-17.1c-0.4-0.5-0.4-1.2,0.1-1.6c0.5-0.4,1.2-0.4,1.6,0.1C26,10.5,33,18.6,33,28.8C33,29.4,32.4,29.9,31.8,29.9z
		"/>
</g>
</svg>
